<?xml version="1.0" encoding="UTF-8"?>
<!DOCTYPE svg PUBLIC "-//W3C//DTD SVG 1.1//EN" "http://www.w3.org/Graphics/SVG/1.1/DTD/svg11.dtd">
<svg xmlns="http://www.w3.org/2000/svg" version="1.1" width="127px" height="80px" style="shape-rendering:geometricPrecision; text-rendering:geometricPrecision; image-rendering:optimizeQuality; fill-rule:evenodd; clip-rule:evenodd" xmlns:xlink="http://www.w3.org/1999/xlink">
<g><path style="opacity:1" fill="#ae9878" d="M 21.5,3.5 C 21.369,4.23891 21.5357,4.90558 22,5.5C 23.3561,4.61983 24.8561,4.28649 26.5,4.5C 28.0986,5.7985 28.5986,7.46517 28,9.5C 25.2617,10.4817 22.4284,11.1484 19.5,11.5C 19.6355,8.44862 19.3022,5.44862 18.5,2.5C 19.9474,0.0343439 20.9474,0.367677 21.5,3.5 Z"/></g>
<g><path style="opacity:1" fill="#a79273" d="M 101.5,10.5 C 102.302,11.8847 102.969,11.718 103.5,10C 103.43,9.2352 103.097,8.7352 102.5,8.5C 98.3228,9.15844 96.8228,7.49178 98,3.5C 99.8847,1.98002 102.051,0.980021 104.5,0.5C 105.66,4.45894 105.827,8.45894 105,12.5C 103.274,13.5762 101.441,13.7429 99.5,13C 98.5494,12.2825 98.3828,11.4491 99,10.5C 99.9772,9.22641 100.811,9.22641 101.5,10.5 Z"/></g>
<g><path style="opacity:0.999" fill="#baa27f" d="M 58.5,1.5 C 59.5862,1.61998 60.2528,2.28665 60.5,3.5C 60.0179,6.5414 59.3513,9.5414 58.5,12.5C 57.676,10.2524 56.676,10.0858 55.5,12C 50.9167,12.9337 49.4167,11.1004 51,6.5C 52.7328,4.3985 54.7328,4.06516 57,5.5C 57.7914,4.25501 58.2914,2.92167 58.5,1.5 Z"/></g>
<g><path style="opacity:0.999" fill="#9d896c" d="M 87.5,6.5 C 87.5393,4.77606 87.206,4.44272 86.5,5.5C 85.8333,5.5 85.5,5.83333 85.5,6.5C 85.8417,7.33825 86.5084,7.67158 87.5,7.5C 86.4975,9.01094 85.8308,10.6776 85.5,12.5C 84.5,12.5 83.5,12.5 82.5,12.5C 81.1407,8.40236 82.1407,4.90236 85.5,2C 87.92,1.08512 89.2534,1.91846 89.5,4.5C 89.2528,5.71335 88.5862,6.38002 87.5,6.5 Z"/></g>
<g><path style="opacity:0.051" fill="#121201" d="M 21.5,3.5 C 23.4147,3.21552 25.0813,3.54885 26.5,4.5C 24.8561,4.28649 23.3561,4.61983 22,5.5C 21.5357,4.90558 21.369,4.23891 21.5,3.5 Z"/></g>
<g><path style="opacity:0.999" fill="#ac9676" d="M 68.5,2.5 C 72.485,2.62944 73.8183,4.46277 72.5,8C 74.5922,8.95254 74.9255,10.2859 73.5,12C 69.1932,13.3082 66.8599,11.8082 66.5,7.5C 66.4365,5.48607 67.1032,3.81941 68.5,2.5 Z"/></g>
<g><path style="opacity:0.999" fill="#a59071" d="M 4.5,1.5 C 5.55198,1.35055 6.55198,1.51722 7.5,2C 9.62131,4.19803 11.288,6.69803 12.5,9.5C 9.99354,9.6917 7.32687,9.85836 4.5,10C 1.8987,7.17047 1.8987,4.33713 4.5,1.5 Z M 5.5,5.5 C 8.00092,5.51092 8.16758,6.17759 6,7.5C 5.53566,6.90558 5.36899,6.23891 5.5,5.5 Z"/></g>
<g><path style="opacity:0.999" fill="#978467" d="M 37.5,2.5 C 42.6438,2.39653 43.3104,3.5632 39.5,6C 42.1242,6.57643 42.7908,7.90976 41.5,10C 35.2016,10.4954 33.8682,7.99543 37.5,2.5 Z"/></g>
<g><path style="opacity:0.094" fill="#101005" d="M 101.5,4.5 C 102.043,4.55999 102.376,4.89333 102.5,5.5C 101.743,6.77329 101.077,6.77329 100.5,5.5C 101.167,5.5 101.5,5.16667 101.5,4.5 Z"/></g>
<g><path style="opacity:0.063" fill="#0d0d08" d="M 69.5,5.5 C 70.7733,6.07683 70.7733,6.7435 69.5,7.5C 68.537,7.03017 68.537,6.3635 69.5,5.5 Z"/></g>
<g><path style="opacity:0.055" fill="#0d0d00" d="M 87.5,6.5 C 87.5,6.83333 87.5,7.16667 87.5,7.5C 86.5084,7.67158 85.8417,7.33825 85.5,6.5C 86.1667,6.5 86.5,6.16667 86.5,5.5C 87.206,4.44272 87.5393,4.77606 87.5,6.5 Z"/></g>
<g><path style="opacity:0.09" fill="#101005" d="M 24.5,6.5 C 24.5,7.16667 24.8333,7.5 25.5,7.5C 25.44,8.04309 25.1067,8.37642 24.5,8.5C 23.2267,7.7435 23.2267,7.07683 24.5,6.5 Z"/></g>
<g><path style="opacity:0.078" fill="#0b0b06" d="M 38.5,6.5 C 38.5,7.16667 38.8333,7.5 39.5,7.5C 39.44,8.04309 39.1067,8.37642 38.5,8.5C 37.2267,7.7435 37.2267,7.07683 38.5,6.5 Z"/></g>
<g><path style="opacity:0.059" fill="#0b0b0b" d="M 54.5,7.5 C 54.5,8.16667 54.8333,8.5 55.5,8.5C 54.828,9.26739 53.9947,9.93406 53,10.5C 52.4153,9.00238 52.9153,8.00238 54.5,7.5 Z"/></g>
<g><path style="opacity:0.098" fill="#0d0d08" d="M 102.5,8.5 C 103.097,8.7352 103.43,9.2352 103.5,10C 102.969,11.718 102.302,11.8847 101.5,10.5C 102.338,10.1583 102.672,9.49162 102.5,8.5 Z"/></g>
<g><path style="opacity:0.929" fill="#675b4a" d="M 43.5,20.5 C 42.8333,20.5 42.1667,20.5 41.5,20.5C 41.238,19.0222 41.5713,17.6888 42.5,16.5C 44.6424,17.4371 44.9757,18.7704 43.5,20.5 Z"/></g>
<g><path style="opacity:0.999" fill="#b7a07f" d="M 54.5,18.5 C 54.3505,19.552 54.5172,20.552 55,21.5C 55.6708,20.7476 56.5041,20.4142 57.5,20.5C 57.5858,21.4959 57.2524,22.3292 56.5,23C 57.5742,23.7387 58.2409,24.7387 58.5,26C 56.6543,26.4194 54.6543,27.2528 52.5,28.5C 52.1774,24.774 52.5108,21.1073 53.5,17.5C 54.1067,17.6236 54.44,17.9569 54.5,18.5 Z"/></g>
<g><path style="opacity:0.067" fill="#0b0b0b" d="M 54.5,18.5 C 55.7095,18.9321 56.7095,19.5987 57.5,20.5C 56.5041,20.4142 55.6708,20.7476 55,21.5C 54.5172,20.552 54.3505,19.552 54.5,18.5 Z"/></g>
<g><path style="opacity:0.999" fill="#958268" d="M 85.5,18.5 C 87.0174,18.5106 88.1841,19.1772 89,20.5C 89.8373,18.9926 91.0039,18.4926 92.5,19C 93.4817,21.7383 94.1484,24.5716 94.5,27.5C 91.6118,27.7804 90.1118,26.4471 90,23.5C 89.8882,26.4471 88.3882,27.7804 85.5,27.5C 85.6567,26.1266 85.49,24.7932 85,23.5C 83.9914,25.0249 83.4914,26.6916 83.5,28.5C 82.5,28.5 81.5,28.5 80.5,28.5C 80.3359,25.8127 80.5026,23.146 81,20.5C 82,19.1667 83,19.1667 84,20.5C 84.7172,19.9558 85.2172,19.2891 85.5,18.5 Z"/></g>
<g><path style="opacity:0.999" fill="#917f65" d="M 98.5,18.5 C 99.7498,18.5774 100.583,19.244 101,20.5C 101.837,18.9926 103.004,18.4926 104.5,19C 105.727,21.9505 107.06,24.7839 108.5,27.5C 105.192,28.0262 103.026,26.6928 102,23.5C 101.55,26.1059 100.05,27.4392 97.5,27.5C 97.2641,24.3915 97.5975,21.3915 98.5,18.5 Z"/></g>
<g><path style="opacity:1" fill="#a48f71" d="M 6.5,17.5 C 6.5,18.8333 6.5,20.1667 6.5,21.5C 7.5,21.5 8.5,21.5 9.5,21.5C 11.0428,22.7358 12.0428,24.4024 12.5,26.5C 10.2183,27.9004 8.71835,27.2337 8,24.5C 7.09216,26.4386 5.59216,27.4386 3.5,27.5C 3.10984,23.6065 3.7765,19.9398 5.5,16.5C 6.10667,16.6236 6.44001,16.9569 6.5,17.5 Z"/></g>
<g><path style="opacity:0.071" fill="#120c0a" d="M 6.5,17.5 C 7.34118,18.9264 8.34118,20.2597 9.5,21.5C 8.5,21.5 7.5,21.5 6.5,21.5C 6.5,20.1667 6.5,18.8333 6.5,17.5 Z"/></g>
<g><path style="opacity:0.925" fill="#665a49" d="M 21.5,22.5 C 20.8333,22.5 20.1667,22.5 19.5,22.5C 19.238,21.0222 19.5713,19.6888 20.5,18.5C 22.6424,19.4371 22.9757,20.7704 21.5,22.5 Z"/></g>
<g><path style="opacity:0.998" fill="#a79073" d="M 117.5,17.5 C 121.976,17.8222 123.476,20.1556 122,24.5C 118.526,28.6449 115.693,28.4782 113.5,24C 114.205,21.4582 115.539,19.2916 117.5,17.5 Z M 119.5,21.5 C 118.833,22.8333 117.833,23.8333 116.5,24.5C 116.5,22.5 117.5,21.5 119.5,21.5 Z"/></g>
<g><path style="opacity:0.999" fill="#c0a784" d="M 19.5,22.5 C 20.1667,22.5 20.8333,22.5 21.5,22.5C 21.1568,24.4832 21.8235,25.8166 23.5,26.5C 24.0431,26.56 24.3764,26.8933 24.5,27.5C 20.0715,29.0522 18.4048,27.3855 19.5,22.5 Z"/></g>
<g><path style="opacity:0.122" fill="#14120a" d="M 119.5,21.5 C 120.507,23.268 119.841,24.6013 117.5,25.5C 116.893,25.3764 116.56,25.0431 116.5,24.5C 117.833,23.8333 118.833,22.8333 119.5,21.5 Z"/></g>
<g><path style="opacity:0.075" fill="#0c0909" d="M 21.5,22.5 C 22.3446,23.6715 23.0113,25.0048 23.5,26.5C 21.8235,25.8166 21.1568,24.4832 21.5,22.5 Z"/></g>
<g><path style="opacity:0.999" fill="#917f65" d="M 41.5,20.5 C 42.1667,20.5 42.8333,20.5 43.5,20.5C 44.1239,20.9169 44.4573,21.5836 44.5,22.5C 44,24.5 43.5,26.5 43,28.5C 40.5202,30.0897 38.6868,29.5897 37.5,27C 38.0104,25.1739 38.8438,25.0072 40,26.5C 40.813,24.5643 41.313,22.5643 41.5,20.5 Z"/></g>
<g><path style="opacity:0.999" fill="#927f66" d="M 69.5,18.5 C 71.22,20.6581 72.0533,23.3248 72,26.5C 73.1562,25.0072 73.9896,25.1739 74.5,27C 73.3132,29.5897 71.4798,30.0897 69,28.5C 68.2534,25.0764 68.42,21.7431 69.5,18.5 Z"/></g>
<g><path style="opacity:1" fill="#c2a885" d="M 4.5,32.5 C 6.43525,33.1495 8.43525,33.4828 10.5,33.5C 11.3007,35.0418 11.634,36.7085 11.5,38.5C 10.4324,39.4345 9.09903,39.7678 7.5,39.5C 7.5,41.1667 7.5,42.8333 7.5,44.5C 6.5,44.5 5.5,44.5 4.5,44.5C 4.5,40.5 4.5,36.5 4.5,32.5 Z"/></g>
<g><path style="opacity:0.078" fill="#0f0e0c" d="M 4.5,32.5 C 6.59791,31.5155 8.59791,31.8489 10.5,33.5C 8.43525,33.4828 6.43525,33.1495 4.5,32.5 Z"/></g>
<g><path style="opacity:0.035" fill="#060402" d="M 10.5,33.5 C 11.6491,33.7911 12.3158,34.6244 12.5,36C 12.472,37.0698 12.1386,37.9032 11.5,38.5C 11.634,36.7085 11.3007,35.0418 10.5,33.5 Z"/></g>
<g><path style="opacity:1" fill="#a08b6f" d="M 22.5,32.5 C 23.4959,32.4142 24.3292,32.7476 25,33.5C 25.4988,37.4862 25.6655,41.4862 25.5,45.5C 24.5,45.5 23.5,45.5 22.5,45.5C 22.5,43.8333 22.5,42.1667 22.5,40.5C 17.6724,40.6148 16.3391,38.4481 18.5,34C 20.0581,33.79 21.3915,33.29 22.5,32.5 Z"/></g>
<g><path style="opacity:1" fill="#9f8a6e" d="M 37.5,34.5 C 37.369,35.2389 37.5357,35.9056 38,36.5C 38.6708,35.7476 39.5041,35.4142 40.5,35.5C 41.0431,35.56 41.3764,35.8933 41.5,36.5C 39.8669,38.503 37.8669,39.8363 35.5,40.5C 35.1924,38.076 35.5258,35.7427 36.5,33.5C 37.1067,33.6236 37.44,33.9569 37.5,34.5 Z"/></g>
<g><path style="opacity:0.082" fill="#110b0b" d="M 37.5,34.5 C 38.791,34.2627 39.791,34.596 40.5,35.5C 39.5041,35.4142 38.6708,35.7476 38,36.5C 37.5357,35.9056 37.369,35.2389 37.5,34.5 Z"/></g>
<g><path style="opacity:0.999" fill="#a38d70" d="M 52.5,33.5 C 54.7224,33.178 56.5557,33.8446 58,35.5C 56.5253,37.7505 56.0253,40.2505 56.5,43C 53.9625,43.8672 51.9625,43.2005 50.5,41C 51.0223,40.0497 51.689,39.2164 52.5,38.5C 51.1854,36.8014 51.1854,35.1347 52.5,33.5 Z"/></g>
<g><path style="opacity:0.999" fill="#a79073" d="M 67.5,37.5 C 69.0481,37.1788 69.7148,36.1788 69.5,34.5C 69.56,33.9569 69.8933,33.6236 70.5,33.5C 71.2508,34.376 71.7508,35.376 72,36.5C 73.1562,35.0072 73.9896,35.1739 74.5,37C 74.0116,38.584 73.0116,39.7506 71.5,40.5C 71.9377,41.5063 72.6043,41.5063 73.5,40.5C 74.7296,44.0826 73.3962,45.2493 69.5,44C 68.6028,41.9129 67.9361,39.7463 67.5,37.5 Z"/></g>
<g><path style="opacity:0.078" fill="#0b0808" d="M 114.5,35.5 C 113.167,35.5 112.5,36.1667 112.5,37.5C 111.596,36.791 111.263,35.791 111.5,34.5C 112.791,34.2627 113.791,34.596 114.5,35.5 Z"/></g>
<g><path style="opacity:0.082" fill="#120a06" d="M 122.5,35.5 C 121.167,35.5 120.5,36.1667 120.5,37.5C 120.167,37.5 119.833,37.5 119.5,37.5C 119.5,36.5 119.5,35.5 119.5,34.5C 120.791,34.2627 121.791,34.596 122.5,35.5 Z"/></g>
<g><path style="opacity:1" fill="#968368" d="M 81.5,34.5 C 82.4972,34.4701 83.1639,34.9701 83.5,36C 82.548,37.3004 82.548,38.467 83.5,39.5C 84.0653,37.4904 85.0653,35.8237 86.5,34.5C 87.3805,37.6129 88.3805,40.6129 89.5,43.5C 87.4029,42.6469 85.4029,42.6469 83.5,43.5C 79.0238,41.4609 78.3571,38.4609 81.5,34.5 Z"/></g>
<g><path style="opacity:0.129" fill="#1a1010" d="M 8.5,35.5 C 8.5,36.1667 8.83333,36.5 9.5,36.5C 9.44001,37.0431 9.10667,37.3764 8.5,37.5C 7.22671,36.7435 7.22671,36.0768 8.5,35.5 Z"/></g>
<g><path style="opacity:0.09" fill="#100d07" d="M 69.5,34.5 C 69.7148,36.1788 69.0481,37.1788 67.5,37.5C 67.9321,36.2905 68.5987,35.2905 69.5,34.5 Z"/></g>
<g><path style="opacity:0.999" fill="#988469" d="M 101.5,39.5 C 102.623,40.7574 103.289,40.4241 103.5,38.5C 102.073,35.431 102.906,34.431 106,35.5C 106.896,40.2584 105.063,42.7584 100.5,43C 97.258,40.284 96.9247,37.4506 99.5,34.5C 100.562,36.0217 101.229,37.6883 101.5,39.5 Z"/></g>
<g><path style="opacity:0.122" fill="#14110b" d="M 20.5,36.5 C 20.5,37.1667 20.8333,37.5 21.5,37.5C 21.44,38.0431 21.1067,38.3764 20.5,38.5C 19.2267,37.7435 19.2267,37.0768 20.5,36.5 Z"/></g>
<g><path style="opacity:0.999" fill="#bba280" d="M 114.5,35.5 C 115.434,36.5676 115.768,37.901 115.5,39.5C 115.56,40.0431 115.893,40.3764 116.5,40.5C 117.265,39.3881 118.265,38.7214 119.5,38.5C 119.5,38.8333 119.5,39.1667 119.5,39.5C 120.302,40.8847 120.969,40.718 121.5,39C 121.43,38.2352 121.097,37.7352 120.5,37.5C 120.5,36.1667 121.167,35.5 122.5,35.5C 123.622,37.2884 123.789,39.2884 123,41.5C 122.261,42.5742 121.261,43.2409 120,43.5C 118.296,43.026 116.462,42.8593 114.5,43C 112.845,41.5557 112.178,39.7224 112.5,37.5C 112.5,36.1667 113.167,35.5 114.5,35.5 Z"/></g>
<g><path style="opacity:0.084" fill="#150b0b" d="M 119.5,37.5 C 119.5,37.8333 119.5,38.1667 119.5,38.5C 118.265,38.7214 117.265,39.3881 116.5,40.5C 115.893,40.3764 115.56,40.0431 115.5,39.5C 116.467,38.1938 117.801,37.5271 119.5,37.5 Z"/></g>
<g><path style="opacity:0.122" fill="#14110b" d="M 103.5,38.5 C 103.289,40.4241 102.623,40.7574 101.5,39.5C 102.167,39.1667 102.833,38.8333 103.5,38.5 Z"/></g>
<g><path style="opacity:0.137" fill="#18160e" d="M 120.5,37.5 C 121.097,37.7352 121.43,38.2352 121.5,39C 120.969,40.718 120.302,40.8847 119.5,39.5C 120.338,39.1583 120.672,38.4916 120.5,37.5 Z"/></g>
<g><path style="opacity:0.096" fill="#14120b" d="M 3.5,50.5 C 4.99891,49.506 6.66558,49.506 8.5,50.5C 8.21719,51.2891 7.71719,51.9558 7,52.5C 6.18405,51.1772 5.01739,50.5106 3.5,50.5 Z"/></g>
<g><path style="opacity:0.029" fill="#060603" d="M 8.5,50.5 C 9.20895,49.596 10.209,49.2627 11.5,49.5C 11.7373,50.791 11.404,51.791 10.5,52.5C 10.5,51.1667 9.83333,50.5 8.5,50.5 Z"/></g>
<g><path style="opacity:1" fill="#c8ae89" d="M 3.5,50.5 C 5.01739,50.5106 6.18405,51.1772 7,52.5C 7.71719,51.9558 8.21719,51.2891 8.5,50.5C 9.83333,50.5 10.5,51.1667 10.5,52.5C 10.5,53.1667 10.1667,53.5 9.5,53.5C 8.95691,53.56 8.62358,53.8933 8.5,54.5C 9.63023,55.6223 10.2969,56.9557 10.5,58.5C 8.98261,58.4894 7.81595,57.8228 7,56.5C 5.98873,57.3366 4.82207,57.67 3.5,57.5C 4.54628,55.1183 4.54628,52.7849 3.5,50.5 Z"/></g>
<g><path style="opacity:0.149" fill="#140e09" d="M 9.5,53.5 C 10.355,54.5307 11.0217,55.6974 11.5,57C 11.4301,57.7648 11.0967,58.2648 10.5,58.5C 10.2969,56.9557 9.63023,55.6223 8.5,54.5C 8.62358,53.8933 8.95691,53.56 9.5,53.5 Z"/></g>
<g><path style="opacity:1" fill="#9f8b6e" d="M 39.5,54.5 C 36.7561,57.4931 37.4228,58.1597 41.5,56.5C 42.7736,57.1894 42.7736,58.0228 41.5,59C 39.5,59.6667 37.5,59.6667 35.5,59C 34.1667,57.6667 34.1667,56.3333 35.5,55C 34.0267,54.2904 33.3601,53.1238 33.5,51.5C 35.8695,51.1489 38.2028,50.9822 40.5,51C 41.7996,52.5788 41.4663,53.7455 39.5,54.5 Z"/></g>
<g><path style="opacity:0.102" fill="#11100f" d="M 39.5,54.5 C 40.1667,55.1667 40.8333,55.8333 41.5,56.5C 37.4228,58.1597 36.7561,57.4931 39.5,54.5 Z"/></g>
<g><path style="opacity:0.998" fill="#928065" d="M 23.5,48.5 C 26.7658,49.1138 28.0991,51.1138 27.5,54.5C 27.9275,57.9926 26.5942,60.326 23.5,61.5C 20.7183,61.141 20.0517,59.8077 21.5,57.5C 22.3957,58.5063 23.0623,58.5063 23.5,57.5C 19.6728,55.9951 18.3394,53.3284 19.5,49.5C 21.1667,50.5 22.5,51.8333 23.5,53.5C 24.0522,51.9974 24.0522,50.3307 23.5,48.5 Z"/></g>
</svg>
